<svg width="1500" height="500" viewBox="0 0 1500 500" fill="none" xmlns="http://www.w3.org/2000/svg">
<path d="M647.73 234.705C647.607 238.775 646.99 242.105 645.88 244.695C644.893 247.285 644.4 252.033 644.4 258.94C644.4 265.847 644.893 272.26 645.88 278.18C645.88 280.523 644.523 282.867 641.81 285.21C640.947 285.95 640.515 286.567 640.515 287.06C640.515 287.43 640.947 288.108 641.81 289.095C642.673 289.958 643.907 290.39 645.51 290.39C647.113 290.39 649.148 289.773 651.615 288.54C654.205 287.183 656.178 285.888 657.535 284.655L659.57 282.805C662.037 280.338 663.27 276.207 663.27 270.41L662.53 262.455C662.53 262.085 663.393 261.407 665.12 260.42C666.97 259.433 667.895 258.385 667.895 257.275C667.895 255.302 666.6 253.39 664.01 251.54C662.53 251.047 661.42 249.752 660.68 247.655C660.68 247.408 661.112 246.113 661.975 243.77C664.565 236.74 665.86 232.3 665.86 230.45C665.86 228.477 665.737 227.12 665.49 226.38C664.133 224.037 663.208 218.918 662.715 211.025C662.222 203.132 661.42 198.198 660.31 196.225C659.2 194.128 657.658 192.34 655.685 190.86C653.835 189.38 652.232 188.393 650.875 187.9L648.84 187.16C647.977 187.16 647.052 187.468 646.065 188.085C645.078 188.702 644.647 189.38 644.77 190.12C644.893 190.86 644.955 193.635 644.955 198.445C644.955 203.255 644.647 208.003 644.03 212.69V212.875C644.03 213.492 644.708 214.602 646.065 216.205C647.545 217.685 648.285 218.918 648.285 219.905C648.285 220.892 647.36 222.433 645.51 224.53C643.783 226.503 642.92 227.922 642.92 228.785C642.92 229.648 643.722 230.758 645.325 232.115C646.928 233.348 647.73 234.212 647.73 234.705ZM701.195 243.4L701.75 251.54C701.75 252.527 701.565 253.082 701.195 253.205C699.345 254.808 698.42 258.015 698.42 262.825C697.31 270.718 696.262 274.912 695.275 275.405C690.218 276.268 687.69 278.18 687.69 281.14C687.69 282.373 688.245 283.545 689.355 284.655C690.588 285.642 691.205 286.382 691.205 286.875C691.205 287.368 689.54 289.527 686.21 293.35C683.003 297.05 679.673 300.072 676.22 302.415C672.767 304.758 668.512 307.225 663.455 309.815C658.398 312.282 654.637 313.515 652.17 313.515C651.923 313.515 651.492 313.145 650.875 312.405C650.382 311.665 649.765 311.295 649.025 311.295C649.025 311.295 643.105 311.788 631.265 312.775C624.852 312.775 618.192 311.912 611.285 310.185L607.585 309.26C606.968 309.013 606.352 308.397 605.735 307.41C605.118 306.423 604.81 305.683 604.81 305.19L604.995 304.82C607.092 301.613 608.14 295.077 608.14 285.21V284.84C608.14 284.593 609.065 283.977 610.915 282.99C612.888 281.88 613.875 280.462 613.875 278.735C613.875 277.008 612.765 275.282 610.545 273.555C608.325 271.828 607.215 270.78 607.215 270.41V270.225C608.448 265.045 609.065 252.835 609.065 233.595V228.415C609.065 225.085 608.448 222.063 607.215 219.35V218.98L609.065 214.17C609.312 213.43 609.435 212.012 609.435 209.915L608.695 194.19C608.078 190.367 606.783 186.975 604.81 184.015C602.837 180.932 601.85 179.328 601.85 179.205C601.85 178.958 601.973 178.527 602.22 177.91C603.083 175.813 604.193 174.395 605.55 173.655C606.907 172.792 612.087 171.312 621.09 169.215C630.217 167.118 636.322 166.07 639.405 166.07C642.612 166.07 648.347 166.81 656.61 168.29C664.997 169.77 670.67 171.25 673.63 172.73C676.59 174.21 680.907 177.725 686.58 183.275C692.253 188.702 695.09 192.093 695.09 193.45C695.09 193.82 694.535 194.992 693.425 196.965C692.315 198.815 691.76 200.172 691.76 201.035C691.76 201.898 692.932 203.07 695.275 204.55C697.618 205.907 698.913 207.202 699.16 208.435C700.393 215.218 701.133 220.337 701.38 223.79L701.565 228.23C701.565 230.45 701.503 233.533 701.38 237.48L701.195 243.4ZM786.844 254.87L787.954 280.77C787.954 282.497 787.708 284.408 787.214 286.505C786.844 288.602 784.994 292.055 781.664 296.865C778.458 301.675 775.991 304.08 774.264 304.08L768.344 302.23C767.851 302.23 767.111 302.785 766.124 303.895C765.261 305.005 764.089 306.238 762.609 307.595C761.253 308.952 757.183 310.678 750.399 312.775C743.739 314.995 739.238 316.105 736.894 316.105C730.974 316.105 725.054 314.255 719.134 310.555C713.214 306.855 708.774 303.402 705.814 300.195C705.691 300.072 705.074 299.825 703.964 299.455C702.978 299.085 702.299 298.777 701.929 298.53C701.683 298.16 701.559 297.173 701.559 295.57C701.559 292.24 702.114 287.677 703.224 281.88L703.779 279.105C703.779 279.105 702.978 275.837 701.374 269.3C701.374 267.943 704.396 264.983 710.439 260.42C716.606 255.857 721.046 253.575 723.759 253.575C726.473 253.575 729.186 254.007 731.899 254.87C735.229 255.733 736.894 256.412 736.894 256.905C736.894 257.398 736.401 259.248 735.414 262.455C734.428 265.538 733.934 267.82 733.934 269.3C733.934 270.657 734.674 271.89 736.154 273C737.634 273.987 738.374 274.603 738.374 274.85C738.374 276.577 737.696 278.55 736.339 280.77C734.983 282.99 734.304 284.162 734.304 284.285C734.304 285.888 735.414 287.738 737.634 289.835C739.978 291.932 741.766 292.98 742.999 292.98C744.849 292.98 747.439 291.562 750.769 288.725C752.619 286.875 753.544 283.052 753.544 277.255C753.544 271.335 753.236 268.067 752.619 267.45C752.003 266.833 751.694 264.552 751.694 260.605V259.125C751.694 258.878 752.619 258.138 754.469 256.905C756.319 255.548 757.244 254.13 757.244 252.65C757.244 251.17 756.381 249.937 754.654 248.95C753.051 247.963 752.249 247.408 752.249 247.285L752.434 243.4C752.681 238.22 752.804 230.882 752.804 221.385C752.804 211.765 752.373 205.598 751.509 202.885V202.7C751.509 201.96 752.558 200.788 754.654 199.185C756.751 197.458 757.799 196.533 757.799 196.41C757.799 195.3 757.368 194.252 756.504 193.265C755.641 192.278 754.346 191.785 752.619 191.785C750.893 191.785 749.104 192.402 747.254 193.635C745.404 194.868 743.986 196.102 742.999 197.335C742.136 198.568 741.458 199.185 740.964 199.185C740.471 199.185 739.176 198.322 737.079 196.595C734.983 194.868 733.934 193.512 733.934 192.525C733.934 191.538 734.551 188.578 735.784 183.645C737.141 178.588 738.128 175.69 738.744 174.95C739.978 173.84 744.603 172.052 752.619 169.585C760.759 167.118 767.358 165.885 772.414 165.885C773.278 166.502 773.833 166.995 774.079 167.365C774.326 167.735 774.573 167.92 774.819 167.92L787.584 166.625C789.064 166.625 790.051 166.933 790.544 167.55C791.161 168.043 791.469 172.052 791.469 179.575C791.469 181.425 790.483 184.57 788.509 189.01C786.536 193.327 785.549 195.855 785.549 196.595C785.549 197.212 786.289 198.198 787.769 199.555C789.249 200.788 789.989 201.775 789.989 202.515C789.989 203.255 789.126 204.488 787.399 206.215C785.673 207.818 784.809 209.175 784.809 210.285C784.809 211.272 785.734 212.998 787.584 215.465C789.434 217.808 790.359 219.165 790.359 219.535C790.359 219.905 790.298 220.09 790.174 220.09C790.174 220.09 790.174 220.152 790.174 220.275C787.954 224.222 786.844 231.437 786.844 241.92V254.87ZM849.543 236.37C849.42 236.123 849.358 235.938 849.358 235.815C847.755 230.758 846.953 222.865 846.953 212.135V211.395C846.953 208.805 846.398 207.51 845.288 207.51C840.355 207.51 837.888 208.928 837.888 211.765L838.628 220.275C838.628 221.015 837.827 223.358 836.223 227.305C834.62 231.252 833.818 234.397 833.818 236.74C833.818 239.083 834.127 240.255 834.743 240.255C835.853 240.255 837.518 239.885 839.738 239.145C841.958 238.282 844.117 237.85 846.213 237.85C848.433 237.85 849.543 237.357 849.543 236.37ZM814.393 197.15L811.988 186.42C811.988 185.31 816.675 182.227 826.048 177.17C835.545 171.99 841.157 169.215 842.883 168.845C844.61 168.475 847.755 168.29 852.318 168.29C856.882 168.29 861.137 168.722 865.083 169.585C873.47 171.435 877.663 173.223 877.663 174.95C877.663 175.073 877.355 176.677 876.738 179.76C874.765 189.38 873.778 197.027 873.778 202.7C873.778 203.317 874.395 203.81 875.628 204.18C876.862 204.427 877.478 204.612 877.478 204.735C877.478 208.682 878.65 220.645 880.993 240.625C883.46 260.482 885.557 273 887.283 278.18V278.365C887.283 278.612 886.297 279.413 884.323 280.77C882.473 282.127 881.548 283.607 881.548 285.21C881.548 286.813 882.473 287.923 884.323 288.54C886.297 289.157 888.208 289.65 890.058 290.02C891.908 290.267 892.833 290.883 892.833 291.87C892.71 292.117 892.648 292.548 892.648 293.165C892.648 293.782 892.833 294.892 893.203 296.495C893.573 298.962 895.053 302.23 897.643 306.3L898.753 308.15C898.753 310.247 895.238 312.467 888.208 314.81C881.302 317.277 876.122 318.51 872.668 318.51C869.338 318.51 866.008 317.832 862.678 316.475C859.472 315.242 856.82 313.885 854.723 312.405C852.75 310.925 851.763 309.877 851.763 309.26C851.763 309.137 851.887 308.458 852.133 307.225C852.75 304.142 853.058 300.812 853.058 297.235L848.988 271.89C848.988 271.397 850.098 270.965 852.318 270.595C854.538 270.225 855.648 269.423 855.648 268.19C855.648 266.587 854.723 265.23 852.873 264.12C851.023 263.01 848.742 262.455 846.028 262.455C843.438 262.455 840.293 263.133 836.593 264.49C833.017 265.847 830.92 267.142 830.303 268.375C829.81 269.485 828.947 274.973 827.713 284.84C826.48 294.583 825.863 301.86 825.863 306.67C825.863 307.657 822.595 309.013 816.058 310.74C809.522 312.467 804.095 313.33 799.778 313.33C797.558 313.33 793.92 311.727 788.863 308.52L786.458 307.04C786.088 306.67 785.903 306.115 785.903 305.375V305.005C787.753 302.662 789.973 297.667 792.563 290.02L794.043 285.95C795.647 285.95 797.497 285.025 799.593 283.175C801.813 281.202 802.923 279.845 802.923 279.105C802.923 278.242 802.245 276.947 800.888 275.22C799.532 273.37 798.853 272.26 798.853 271.89V271.705L805.698 254.685C805.698 251.972 807.117 242.413 809.953 226.01C812.913 209.607 814.393 199.987 814.393 197.15ZM999.73 213.8L1000.84 218.795C1000.47 229.648 1000.29 239.022 1000.29 246.915C1000.29 254.685 1000.47 259.618 1000.84 261.715C997.757 264.798 996.215 267.45 996.215 269.67C1000.41 272.383 1002.51 274.542 1002.51 276.145C1002.51 276.515 1002.14 277.07 1001.4 277.81C1000.78 278.427 1000.47 279.907 1000.47 282.25C1000.47 284.47 1000.78 287.245 1001.4 290.575C1002.14 293.782 1002.88 296.187 1003.62 297.79L1004.73 300.38V300.565C1004.73 301.182 1003.25 302.415 1000.29 304.265C997.325 306.115 993.625 307.903 989.185 309.63C984.868 311.233 981.6 312.035 979.38 312.035C977.16 312.035 972.473 311.418 965.32 310.185C958.29 308.952 954.775 307.903 954.775 307.04C954.775 303.587 954.22 299.208 953.11 293.905C952 288.602 950.89 284.593 949.78 281.88L948.67 279.845C948.67 279.722 948.855 279.413 949.225 278.92C950.705 277.07 951.445 275.528 951.445 274.295C951.445 272.938 951.013 271.952 950.15 271.335C949.41 270.718 948.485 270.163 947.375 269.67C946.388 269.177 945.772 268.807 945.525 268.56C945.525 264.737 943.552 256.227 939.605 243.03L937.755 236.555C937.015 235.815 935.473 235.322 933.13 235.075C932.637 235.568 932.39 239.638 932.39 247.285L932.76 275.405L932.575 278.18C931.712 279.043 930.91 280.277 930.17 281.88C929.553 283.483 929.245 284.532 929.245 285.025C929.245 286.505 931.157 287.368 934.98 287.615C934.98 289.588 935.412 292.61 936.275 296.68C937.138 300.75 937.57 302.97 937.57 303.34C937.57 304.45 936.768 305.313 935.165 305.93C929.862 308.397 925.422 310.555 921.845 312.405L918.7 314.07C918.577 314.193 917.898 314.255 916.665 314.255C915.555 314.255 912.657 313.392 907.97 311.665C903.283 310.062 900.94 308.952 900.94 308.335C900.94 301.922 902.05 295.323 904.27 288.54L905.38 285.025C905.257 284.902 905.195 284.285 905.195 283.175L905.935 260.235C905.935 256.658 905.75 254.685 905.38 254.315C905.01 253.945 904.825 252.218 904.825 249.135L905.01 243.215C905.01 243.092 905.38 242.783 906.12 242.29C908.34 240.81 909.45 238.96 909.45 236.74C909.45 235.877 908.217 234.335 905.75 232.115L904.085 230.635C903.838 230.388 903.715 229.648 903.715 228.415L904.64 218.055L902.975 206.77C902.975 206.647 903.468 205.968 904.455 204.735C905.442 203.502 905.935 202.392 905.935 201.405C905.935 200.418 904.763 196.287 902.42 189.01C900.077 181.61 898.905 177.663 898.905 177.17C898.905 176.553 900.817 175.073 904.64 172.73C908.463 170.263 910.93 169.03 912.04 169.03H912.965C919.748 169.03 923.818 168.537 925.175 167.55C926.902 167.427 928.998 167.365 931.465 167.365C944.292 167.365 951.753 168.413 953.85 170.51C956.07 178.527 957.18 183.337 957.18 184.94V185.31C954.713 187.283 953.48 189.812 953.48 192.895C953.48 193.388 954.898 194.005 957.735 194.745C960.695 195.485 962.175 196.533 962.175 197.89L961.435 204.365C961.435 205.968 963.038 211.272 966.245 220.275C969.575 229.278 971.548 234.088 972.165 234.705C973.152 235.322 973.953 235.63 974.57 235.63C975.31 235.63 975.68 235.322 975.68 234.705V233.04C975.68 214.663 974.693 204.365 972.72 202.145C972.72 201.652 973.337 200.603 974.57 199C975.803 197.273 976.42 196.102 976.42 195.485C975.68 192.772 974.138 190.243 971.795 187.9C971.548 187.653 971.425 187.222 971.425 186.605C971.425 185.988 971.857 184.817 972.72 183.09C973.707 181.24 974.2 180.068 974.2 179.575L972.165 171.25C972.165 171.003 973.398 170.14 975.865 168.66C983.018 164.22 988.753 162 993.07 162C1001.09 162.247 1005.1 162.987 1005.1 164.22C1002.38 181.857 1001.03 194.19 1001.03 201.22C1003.49 203.933 1004.73 205.783 1004.73 206.77C1004.73 207.757 1003.86 209.113 1002.14 210.84C1000.53 212.567 999.73 213.553 999.73 213.8ZM1070.26 224.715L1075.26 224.9C1078.96 224.9 1081.36 224.345 1082.47 223.235C1083.58 222.125 1087.34 221.632 1093.76 221.755C1100.29 221.755 1104.06 222.31 1105.04 223.42C1106.15 224.407 1106.71 226.688 1106.71 230.265C1106.71 233.842 1106.58 235.753 1106.34 236C1103.62 237.85 1102.08 239.453 1101.71 240.81C1101.34 242.167 1101.16 243.338 1101.16 244.325C1101.16 245.188 1102.02 246.052 1103.75 246.915C1105.6 247.778 1106.52 248.518 1106.52 249.135C1106.52 250.985 1105.97 253.637 1104.86 257.09C1103.75 260.543 1103.19 262.702 1103.19 263.565C1103.19 269.485 1103.44 275.035 1103.93 280.215C1104.55 285.272 1104.86 289.527 1104.86 292.98C1104.86 296.433 1104.43 298.777 1103.56 300.01C1101.84 301.737 1099.55 303.217 1096.72 304.45C1093.88 305.683 1091.78 306.3 1090.43 306.3C1090.18 306.3 1088.76 305.19 1086.17 302.97C1083.71 300.627 1081.92 299.455 1080.81 299.455C1079.7 299.455 1078.22 300.195 1076.37 301.675C1074.64 303.032 1072.73 304.573 1070.63 306.3C1068.54 307.903 1065.7 309.383 1062.12 310.74C1058.67 312.22 1055.28 312.96 1051.95 312.96C1048.62 312.96 1043.99 311.418 1038.07 308.335C1032.15 305.252 1028.39 302.908 1026.79 301.305C1026.29 300.935 1025.55 300.01 1024.57 298.53C1023.7 296.927 1023.09 295.94 1022.72 295.57C1022.35 295.2 1021.24 294.645 1019.39 293.905C1017.66 293.042 1016.49 292.302 1015.87 291.685C1015.26 291.068 1014.58 285.888 1013.84 276.145C1013.1 266.402 1012.23 260.543 1011.25 258.57V258.385C1011.25 258.262 1012.05 257.583 1013.65 256.35C1015.38 254.993 1016.24 253.513 1016.24 251.91C1016.24 250.183 1015.75 248.765 1014.76 247.655C1013.9 246.422 1012.97 245.435 1011.99 244.695C1011.12 243.955 1010.69 243.523 1010.69 243.4C1010.69 240.933 1011.99 236.987 1014.58 231.56C1015.32 230.08 1015.69 226.38 1015.69 220.46L1015.32 204.735C1015.32 201.528 1019.94 194.992 1029.19 185.125C1038.44 175.258 1044.73 170.325 1048.06 170.325L1051.95 172.36C1052.32 172.36 1056.2 171.805 1063.6 170.695C1071.13 169.585 1076.18 169.03 1078.77 169.03C1081.36 169.03 1084.82 169.462 1089.13 170.325C1093.57 171.188 1096.1 171.928 1096.72 172.545C1097.33 173.162 1097.64 174.518 1097.64 176.615C1097.64 178.712 1097.4 180.87 1096.9 183.09C1096.53 185.187 1095.61 188.208 1094.13 192.155C1092.65 195.978 1091.54 198.26 1090.8 199C1090.18 199.74 1089.01 200.11 1087.28 200.11C1085.68 200.11 1084.75 200.048 1084.51 199.925C1084.38 199.678 1083.83 198.938 1082.84 197.705C1081.98 196.472 1081.12 195.423 1080.25 194.56C1078.03 192.093 1074.76 190.86 1070.45 190.86C1069.34 190.86 1067.06 191.6 1063.6 193.08C1060.15 194.56 1057.5 196.225 1055.65 198.075C1055.03 198.692 1054.29 200.788 1053.43 204.365C1052.56 207.942 1052.13 211.148 1052.13 213.985C1052.13 214.478 1050.78 215.403 1048.06 216.76C1046.95 218.24 1046.4 219.35 1046.4 220.09C1046.4 220.707 1047.38 221.57 1049.36 222.68C1051.45 223.667 1052.5 224.345 1052.5 224.715C1052.5 226.072 1051.7 228.353 1050.1 231.56C1049.11 234.767 1048.62 241.242 1048.62 250.985C1048.62 260.728 1048.74 265.723 1048.99 265.97C1049.23 266.217 1049.79 266.648 1050.65 267.265C1052.87 268.745 1053.98 269.793 1053.98 270.41C1053.74 271.397 1053.61 272.568 1053.61 273.925C1053.61 278.488 1055.03 282.188 1057.87 285.025C1058.73 285.888 1060.46 286.32 1063.05 286.32C1064.4 286.32 1066.13 284.408 1068.23 280.585C1070.45 276.762 1071.56 273.37 1071.56 270.41C1071.56 270.163 1071 268.992 1069.89 266.895C1068.91 264.798 1068.41 262.27 1068.41 259.31L1070.26 257.09C1071.37 255.733 1071.93 254.315 1071.93 252.835C1071.93 251.232 1071.43 249.875 1070.45 248.765C1069.58 247.655 1068.91 247.038 1068.41 246.915C1067.92 246.792 1067.36 246.73 1066.75 246.73L1059.9 247.47C1059.16 247.47 1058.79 247.285 1058.79 246.915C1058.79 243.215 1059.78 239.083 1061.75 234.52C1063.85 229.833 1065.64 226.75 1067.12 225.27C1067.49 224.9 1068.54 224.715 1070.26 224.715ZM1155.35 201.775L1158.31 210.285C1158.31 210.532 1157.39 211.765 1155.54 213.985C1153.69 216.205 1152.76 217.87 1152.76 218.98C1152.76 219.967 1153.56 221.138 1155.17 222.495C1156.89 223.852 1157.76 224.9 1157.76 225.64C1154.92 239.453 1153.5 249.443 1153.5 255.61C1153.5 256.967 1154.98 259.125 1157.94 262.085C1158.19 262.332 1158.31 262.825 1158.31 263.565C1158.31 264.182 1157.7 265.847 1156.46 268.56C1155.35 271.15 1154.8 272.692 1154.8 273.185C1154.8 276.515 1156.28 279.907 1159.24 283.36C1162.2 286.813 1164.97 288.54 1167.56 288.54C1169.17 288.54 1170.52 287.923 1171.63 286.69C1172.87 285.333 1173.98 284.038 1174.96 282.805L1176.63 280.955C1176.75 280.832 1176.81 280.647 1176.81 280.4C1176.81 280.153 1176.07 278.92 1174.59 276.7C1173.24 274.357 1172.56 272.753 1172.56 271.89C1172.56 271.027 1173.17 268.683 1174.41 264.86C1175.76 260.913 1176.44 258.077 1176.44 256.35L1173.48 253.39C1173.36 253.267 1173.3 252.897 1173.3 252.28V251.91C1173.3 249.813 1172.87 248.333 1172 247.47L1171.82 246.915C1172.06 245.682 1173.54 243.462 1176.26 240.255C1176.87 239.638 1177.18 237.11 1177.18 232.67L1176.26 214.725C1176.26 213.615 1175.27 212.32 1173.3 210.84C1171.45 209.36 1170.52 208.435 1170.52 208.065C1170.52 204.858 1171.39 201.22 1173.11 197.15L1174.04 195.115C1174.04 193.635 1172.37 191.97 1169.04 190.12L1167.38 189.195C1165.28 189.195 1162.75 190.737 1159.79 193.82C1156.83 196.78 1155.35 199.432 1155.35 201.775ZM1207.89 268.005C1207.89 270.472 1209.13 272.815 1211.59 275.035C1211.59 277.748 1210.67 281.202 1208.82 285.395C1206.97 289.465 1204.99 292.918 1202.9 295.755C1200.92 298.592 1199.63 300.01 1199.01 300.01C1196.18 300.01 1192.85 300.812 1189.02 302.415C1185.32 304.018 1182.3 305.622 1179.96 307.225L1176.44 309.63C1175.21 310.74 1169.54 311.85 1159.42 312.96L1154.43 313.515C1149.25 313.515 1143.88 311.357 1138.33 307.04C1132.78 302.6 1128.53 298.345 1125.57 294.275C1122.73 290.205 1121.31 287.923 1121.31 287.43C1121.31 286.937 1121.56 285.888 1122.05 284.285C1122.67 282.682 1122.98 281.14 1122.98 279.66C1122.98 276.7 1121.07 275.22 1117.24 275.22L1115.76 275.405C1114.78 275.405 1113.54 268.807 1112.06 255.61L1111.32 249.135L1113.54 223.975C1113.54 223.605 1114.28 222.372 1115.76 220.275C1117.24 218.178 1117.98 216.883 1117.98 216.39L1117.61 200.48C1117.61 195.67 1117.8 193.018 1118.17 192.525C1119.77 190.305 1124.89 185.988 1133.52 179.575C1142.16 173.162 1148.63 169.955 1152.95 169.955C1153.81 167.858 1154.74 166.81 1155.72 166.81C1161.89 166.44 1169.04 166.255 1177.18 166.255C1185.45 166.255 1190.26 166.933 1191.61 168.29C1191.74 168.413 1193.15 169.708 1195.87 172.175C1198.58 174.642 1200.86 176.8 1202.71 178.65C1204.56 180.5 1206.35 182.782 1208.08 185.495C1209.93 188.208 1210.85 190.49 1210.85 192.34L1207.15 196.965C1208.51 199.802 1210.42 205.783 1212.89 214.91C1215.48 223.913 1216.77 230.388 1216.77 234.335C1216.28 253.575 1215.35 263.195 1214 263.195C1209.93 264.798 1207.89 266.402 1207.89 268.005Z" fill="#092E20"/>
<path d="M398.104 125H438.979V314.229C418.01 318.208 402.615 319.802 385.896 319.802C335.99 319.802 309.979 297.24 309.979 253.969C309.979 212.281 337.583 185.219 380.323 185.219C386.958 185.219 392 185.74 398.104 187.333V125ZM398.104 220.24C393.661 218.739 388.991 218.02 384.302 218.115C363.594 218.115 351.656 230.854 351.656 253.167C351.656 274.938 363.073 286.875 384.042 286.875C388.552 286.875 392.271 286.615 398.104 285.813V220.229V220.24ZM504.021 188.125V282.896C504.021 315.542 501.635 331.208 494.469 344.74C487.833 357.75 479.073 365.979 461.021 375L423.062 356.948C441.115 348.458 449.875 341.01 455.448 329.604C461.292 317.927 463.146 304.385 463.146 268.823V188.115H504.021V188.125ZM463.146 125.219H504.021V167.156H463.146V125.219Z" fill="#092E20"/>
</svg>
